<svg xmlns="http://www.w3.org/2000/svg" viewBox="0.002 -0.002 73.265 73.265">
	<defs>
		<clipPath id="a"><path d="M16.84 16.84H153v135.914H16.84Zm0 0" /></clipPath>
	</defs>
	<g clip-path="url(#a)" transform="translate(-9.075 -9.078)scale(.53905)">
		<path
			fill="#e41f13"
			d="M80.395 72.14H69.246v9.18h11.149v7.184H69.246v7.11h11.149v7.015H59.09V65.066h21.305Zm59.875 30.489-2.395-7.297a14.737 14.737 0 0 1-15.516-.223l-2.593 7.52h-12.72L97.2 88.879 94.66 92.16v10.469H84.535V65.027H94.66V81.43l12.895-16.364h8.086l-13.77 17.782 10.945 15.254 11.692-33.036h13.652l6.715 20.555 7.879-50.418L35.199 16.836l-7.535 48.246h10.277c10.211.152 18.45 8.504 18.45 18.797 0 9.937-7.66 18.75-17.395 18.75H24.457v-17.02l-7.617 48.782 117.547 18.359 7.832-50.121zm0 0"
		/>
	</g>
	<path
		fill="#e41f13"
		d="M36.99 91.082v12.158h1.656c3.341 0 6.051-2.723 6.051-6.079s-2.71-6.079-6.051-6.079zM88.382 91.392l-2.931 8.5a.2.2 0 0 0 .088.24c.901.52 1.94.817 3.045.817a6.1 6.1 0 0 0 2.89-.73.2.2 0 0 0 .096-.24l-2.81-8.585a.2.2 0 0 0-.378-.002"
		style="stroke-width: 0.539052"
		transform="translate(-27.422 -61.024)"
	/>
</svg>
