<svg
	xmlns="http://www.w3.org/2000/svg"
	width="545.23"
	height="370.653"
	viewBox="0 0 144.259 98.069"
>
	<path
		fill="#ed1c24"
		d="M18.879 131.726h144.258V33.657H18.88Zm0 0"
		style="stroke-width: 0.191522"
		transform="translate(-18.879 -33.657)"
	/>
	<path
		fill="#fff"
		d="M33.953 48.213h11.525q11.155.002 15.087 1.025t5.982 3.363q2.049 2.34 2.56 5.209.514 2.868.514 11.275v20.727c0 5.313-.253 8.862-.751 10.655q-.75 2.686-2.617 4.204-1.865 1.519-4.607 2.12-2.745.603-8.267.602H33.953ZM49.41 58.386v38.836q3.252 0 4.005-1.331c.498-.887.751-3.3.751-7.239V65.714q0-4.008-.253-5.141-.251-1.13-1.141-1.659-.896-.527-3.362-.528M87.92 55.876H72.727v-7.661h15.191zm0 51.517H72.727V58.914h15.191zM105.804 58.914l-.53 6.397q3.19-6.915 9.248-7.321v17.04q-4.052 0-5.946 1.097-1.898 1.1-2.336 3.057-.438 1.962-.436 9.025v19.184H91.008V58.914ZM148.539 58.914l-5.943 19.351 7.66 29.128h-14.068l-4.622-21.095-.067 21.095h-14.796v-59.18H131.5l.067 24.894 4.622-14.193zM150.257 112.776H33.953v-2.575h116.304Zm0 0"
		style="stroke-width: 0.476015"
		transform="translate(-18.879 -33.657)"
	/>
</svg>
