<svg xmlns="http://www.w3.org/2000/svg" viewBox="18.743 10.166 111.869 127.645">
	<path
		fill="#01b0ea"
		d="M30.2 29.4c-.2.2-.3.4-.4.5-6.8 8.7-10.4 18.6-11 29.5-.4 8.8 1.3 17.2 5.2 25.1 4.9 9.8 12.1 17.5 21.8 22.7 10.8 5.8 22.3 7.5 34.3 5.3 12.2-2.3 22.3-8.3 30.1-17.9 10.5-13 13.9-27.8 10.5-44.1-2.1-9.9-7-18.4-14.2-25.5-9.6-9.4-21.2-14.3-34.6-14.8-8.1-.3-15.9 1.4-23.3 4.8-.7.3-.9.7-.7 1.4 1.1 4.9 4.1 18.1 4.5 19.8h.2c.3-.2.7-.4 1-.6 7.6-4.6 15.8-6.2 24.4-3.9 12.3 3.2 20.4 11 23.7 23.2 1.7 6.2 2.9 12.5 4.3 18.8.4 1.9.9 3.7.5 5.7-.9 4.9-4.9 8.4-9.9 8.6-4.6.2-9-3.3-10.1-7.9-1.5-6.3-3-12.5-4.3-18.8-1.5-7.5-8.1-10.7-13.3-10-6.6.9-11.4 7.5-10 14 1 4.4 2 8.7 3 13.1.6 2.8 1.4 5.5 1.8 8.3.7 5.4-3.3 10.3-8.6 11.1S44.7 95 43.6 89.7c-1.1-5-13-58.3-13.4-60.3"
	/>
	<path
		fill="#ed2026"
		d="M71.8 137.8c22.7.3 45.2-11.6 58-30.3 2.6-4.8-1.4-11-6.9-10-2.9.3-4.2 2.8-5.9 4.8-2 2.6-4.2 4.9-6.6 7.1-17.8 16-42.8 19-63.6 9.4-2.4-1-4.4-2.8-7.1-2.1-1.8.5-3.2 1.3-4 2.6-3.8 6.8 1.8 10.3 6.8 12.3 9.3 4 19.2 6.4 29.3 6.2"
	/>
</svg>
