<svg
	xmlns="http://www.w3.org/2000/svg"
	version="1.2"
	viewBox="4.4 4.8 131.2 138.8"
>
	<path
		fill-rule="evenodd"
		d="M66.6 36.8v22c0 6-4.4 10.8-10.4 10.8H35.8C19 69.6 5.4 55.2 5.4 37.2 5.4 19.6 19 4.8 35.8 4.8c17.2 0 30.8 14.4 30.8 32"
		style="fill: #7fbb1d"
	/>
	<path
		fill-rule="evenodd"
		d="M65.6 111.2V89.6c0-6-4.4-10.8-10.4-10.8H34.8C18 78.8 4.4 93.2 4.4 111.2s13.6 32.4 30.4 32.4c17.2 0 30.8-14.4 30.8-32.4"
		style="fill: #554da7"
	/>
	<path
		fill-rule="evenodd"
		d="M74 111.2V89.6c0-6 4.4-10.8 10.4-10.8h20.4c16.8 0 30.8 14.4 30.8 32.4s-14 32.4-30.8 32.4S74 129.2 74 111.2"
		style="fill: #227647"
	/>
	<path
		fill-rule="evenodd"
		d="M74.4 36.8v22c0 6 4.4 10.8 10 10.8h20.4c17.2 0 30.8-14.4 30.8-32.4 0-17.6-13.6-32.4-30.8-32.4-16.8 0-30.4 14.4-30.4 32"
		style="fill: #e3131d"
	/>
</svg>
