<svg xmlns="http://www.w3.org/2000/svg" width="70" height="47">
	<g fill="none" fill-rule="evenodd">
		<path
			fill="#fdf5dc"
			d="m.361 8.675 4.982 37.749 64.296-8.442L64.656.233z"
		/>
		<path
			stroke="#00774c"
			stroke-linecap="round"
			stroke-linejoin="round"
			stroke-width=".229"
			d="M69.639 37.982 5.344 46.424.361 8.676 64.657.233z"
		/>
		<path
			fill="#00774c"
			d="m50.052 14.834 1.566-3.704s-.927-1.194-3.216-1.597c0 0-2.523-.793-4.549 1.695 0 0-1.514 1.29-1.312 3.683 0 0 .468 2.299 2.12 3.522 0 0 2.485 2.011 2.775 3.438 0 0 .528 1.572-1.364 1.472 0 0-.823.957-1.913-.651l-.408-.014s-.354.172-2.518 1.123l-.44.125s.176 1.433 1.545 2.331c1.367.899 2.61 1.998 5.361 1.35 2.64-.62 3.753-2.172 4.046-3.018 0 0 .244-2.235-.73-4.498 0 0-.51-1.836-1.82-3.011-1.62-1.453-1.333-1.183-1.933-1.797-.694-.71-.714-1.929.337-1.89 0 0 .66-.076 1.46.707.561.548.884.973.884.973z"
		/>
		<path
			stroke="#00774c"
			stroke-linecap="round"
			stroke-linejoin="round"
			stroke-width=".228"
			d="m50.052 14.834 1.566-3.704s-.927-1.194-3.216-1.597c0 0-2.523-.793-4.549 1.695 0 0-1.514 1.29-1.312 3.683 0 0 .468 2.299 2.12 3.522 0 0 2.485 2.011 2.775 3.438 0 0 .528 1.572-1.364 1.472 0 0-.823.957-1.913-.651l-.408-.014s-.354.172-2.518 1.123l-.44.125s.176 1.433 1.545 2.331c1.367.899 2.61 1.998 5.361 1.35 2.64-.62 3.753-2.172 4.046-3.018 0 0 .244-2.235-.73-4.498 0 0-.51-1.836-1.82-3.011-1.62-1.453-1.333-1.183-1.933-1.797-.694-.71-.714-1.929.337-1.89 0 0 .66-.076 1.46.707.561.548.884.973.884.973z"
		/>
		<path
			fill="#00774c"
			d="M52.326 9.2s1.783-.562 3.795-.695a32 32 0 0 1 4.66.006c1.989.138 2.312.184 2.312.184s-.247 1.181-.73 2.283c-.325.743-.507 1.25-.738 1.696-.31.6-.703 1.357-1.066 2.027-.57 1.05-.95 1.786-1.55 2.964-1.065 2.092-1.782 3.888-1.782 3.888s3.615.21 5.927-.934l.426-.231s-1.894 5.37-2.143 5.613c-.25.243-1.14.43-3.233.284-2.095-.146-6.058-.6-6.886-1.017 0 0-.097.075-.45-.475 0 0 1.3-3.468 2.503-5.802 1.205-2.334 3.053-5.818 3.053-5.818l-.072-.116s-1.735.048-2.818.366c-1.063.312-1.515.38-2.408.87l-1.14.743c-.096.096 2.34-5.835 2.34-5.835"
		/>
		<path
			stroke="#00774c"
			stroke-linecap="round"
			stroke-linejoin="round"
			stroke-width=".228"
			d="M52.326 9.2s1.783-.562 3.795-.695a32 32 0 0 1 4.66.006c1.989.138 2.312.184 2.312.184s-.247 1.181-.73 2.283c-.325.743-.507 1.25-.738 1.696-.31.6-.703 1.357-1.066 2.027-.57 1.05-.95 1.786-1.55 2.964-1.065 2.092-1.782 3.888-1.782 3.888s3.615.21 5.927-.934l.426-.231s-1.894 5.37-2.143 5.613c-.25.243-1.14.43-3.233.284-2.095-.146-6.058-.6-6.886-1.017 0 0-.097.075-.45-.475 0 0 1.3-3.468 2.503-5.802 1.205-2.334 3.053-5.818 3.053-5.818l-.072-.116s-1.735.048-2.818.366c-1.063.312-1.515.38-2.408.87l-1.14.743c-.096.096 2.34-5.835 2.34-5.835"
		/>
		<path
			fill="#00774c"
			d="M44.163 10.194c-.033.972-.13 2.775-1.591 4.578l-4.612.998s-.346 1.73-.374 2.036c0 0 1.798-.325 3.564-.759l-.979 3.833-3.077.606-.658 2.949s3.358.115 5.429-.949l1.68-.708s-1.724 4.47-2.404 5.198c0 0-6.117 1.746-10.158 1.57l.48-1.607-.016-.115s2.653-15.202 2.657-15.555c.004-.354-.02-.15-.02-.15l1.065.012s.632-.087 3.39-.668c2.545-.537 4.73-1.38 4.73-1.38l.878-.384z"
		/>
		<path
			stroke="#00774c"
			stroke-linecap="round"
			stroke-linejoin="round"
			stroke-width=".228"
			d="M44.163 10.194c-.033.972-.13 2.775-1.591 4.578l-4.612.998s-.346 1.73-.374 2.036c0 0 1.798-.325 3.564-.759l-.979 3.833-3.077.606-.658 2.949s3.358.115 5.429-.949l1.68-.708s-1.724 4.47-2.404 5.198c0 0-6.117 1.746-10.158 1.57l.48-1.607-.016-.115s2.653-15.202 2.657-15.555c.004-.354-.02-.15-.02-.15l1.065.012s.632-.087 3.39-.668c2.545-.537 4.73-1.38 4.73-1.38l.878-.384z"
		/>
		<path
			fill="#00774c"
			d="M17.13 20.66c-.496.453-1.741.909-2.676 1.211-.728.235-1.487.245-1.487.245l.343-3.164s2.129-.72 2.79-.733c.802-.013 1.313-.059 1.588.904.14.491-.131 1.15-.557 1.537m2.046-5.595c-1.096-.5-2.146-1.681-3.594-1.526-1.004.108-7.936 1.649-7.936 1.649l-.77 5.939 2.22-.708s.22.005.077.074c-.143.07-2.147 12.002-2.144 12.405.003.476 4.164-.682 4.164-.682l1.078-5.007s.15-.02 1.12-.35c.969-.328 3.167-1.325 3.167-1.325 4.763-3.05 4.588-7.493 4.484-9.26-.096-1.62-1.866-1.21-1.866-1.21"
		/>
		<path
			stroke="#00774c"
			stroke-linecap="round"
			stroke-linejoin="round"
			stroke-width=".228"
			d="M17.13 20.66c-.496.453-1.741.909-2.676 1.211-.728.235-1.487.245-1.487.245l.343-3.164s2.129-.72 2.79-.733c.802-.013 1.313-.059 1.588.904.14.491-.131 1.15-.557 1.537m2.047-5.595c-1.096-.5-2.146-1.681-3.594-1.526-1.004.108-7.936 1.649-7.936 1.649l-.77 5.939 2.22-.708s.22.005.077.074c-.143.07-2.147 12.002-2.144 12.405.003.476 4.164-.682 4.164-.682l1.078-5.007s.15-.02 1.12-.35c.969-.328 3.167-1.325 3.167-1.325 4.763-3.05 4.588-7.493 4.484-9.26-.096-1.62-1.866-1.21-1.866-1.21"
		/>
		<path
			fill="#00774c"
			d="M26.235 22.319c-.935 2.153-2.707 3.298-3.857 2.8-1.153-.497-1.386-2.535-.451-4.689s2.647-3.185 3.798-2.688c1.151.498 1.446 2.424.51 4.577m.245-10.214c-3.022.23-7.329 4.543-8.788 9.91s.564 9.492 3.587 9.262c3.021-.23 8.618-3.972 10.079-9.339 1.458-5.366-1.856-10.062-4.878-9.833"
		/>
		<path
			stroke="#00774c"
			stroke-linecap="round"
			stroke-linejoin="round"
			stroke-width=".228"
			d="M26.235 22.319c-.935 2.153-2.707 3.298-3.857 2.8-1.153-.497-1.386-2.535-.451-4.689s2.647-3.185 3.798-2.688c1.151.498 1.446 2.424.51 4.577m.245-10.214c-3.022.23-7.329 4.543-8.788 9.91s.564 9.492 3.587 9.262c3.021-.23 8.618-3.972 10.079-9.339 1.458-5.366-1.856-10.062-4.878-9.833"
		/>
		<path
			fill="#3aa549"
			d="M42.884 9.216c-.031.973-.128 2.775-1.59 4.579l-4.612.997s-.345 1.73-.373 2.037c0 0 1.798-.326 3.564-.76l-.98 3.833-3.077.606-.658 2.949s3.358.115 5.43-.949l1.679-.708s-1.723 4.47-2.404 5.198c0 0-6.117 1.747-10.159 1.57l.48-1.607-.014-.116s2.653-15.2 2.656-15.554c.005-.354-.02-.15-.02-.15l1.066.012s.632-.087 3.39-.668c2.545-.537 4.73-1.38 4.73-1.38l.877-.384z"
		/>
		<path
			stroke="#3aa549"
			stroke-linecap="round"
			stroke-linejoin="round"
			stroke-width=".228"
			d="M42.884 9.216c-.031.973-.128 2.775-1.59 4.579l-4.612.997s-.345 1.73-.373 2.037c0 0 1.798-.326 3.564-.76l-.98 3.833-3.077.606-.658 2.949s3.358.115 5.43-.949l1.679-.708s-1.723 4.47-2.404 5.198c0 0-6.117 1.747-10.159 1.57l.48-1.607-.014-.116s2.653-15.2 2.656-15.554c.005-.354-.02-.15-.02-.15l1.066.012s.632-.087 3.39-.668c2.545-.537 4.73-1.38 4.73-1.38l.877-.384z"
		/>
		<path
			fill="#3aa549"
			d="m49.21 13.053 1.15-2.906s-.767-1.1-3.144-1.636c0 0-2.596-.754-4.623 1.735 0 0-1.513 1.289-1.311 3.683 0 0 .469 2.299 2.12 3.522-.001 0 2.612 1.998 2.901 3.424 0 0 .402 1.585-1.49 1.485 0 0-.914.094-2.004-1.514l-.198-.43s-.473 1.431-2.638 2.382l-.301.302s.04 1.277 1.407 2.175c1.368.898 2.61 1.998 5.36 1.35 2.642-.621 3.753-2.172 4.047-3.018 0 0 .711-2.96-.684-4.9 0 0-.791-1.233-1.946-2.203-1.672-1.402-1.804-1.674-1.804-1.674s-.63-.703-.545-1.45c.001-.299.096-.926.667-1.225.563-.287 1.204-.137 1.441.017 1.006.496 1.208.996 1.39 1.461.014.102.205-.58.205-.58"
		/>
		<path
			stroke="#3aa549"
			stroke-linecap="round"
			stroke-linejoin="round"
			stroke-width=".228"
			d="m49.21 13.053 1.15-2.906s-.767-1.1-3.144-1.636c0 0-2.596-.754-4.623 1.735 0 0-1.513 1.289-1.311 3.683 0 0 .469 2.299 2.12 3.522-.001 0 2.612 1.998 2.901 3.424 0 0 .402 1.585-1.49 1.485 0 0-.914.094-2.004-1.514l-.198-.43s-.473 1.431-2.638 2.382l-.301.302s.04 1.277 1.407 2.175c1.368.898 2.61 1.998 5.36 1.35 2.642-.621 3.753-2.172 4.047-3.018 0 0 .711-2.96-.684-4.9 0 0-.791-1.233-1.946-2.203-1.672-1.402-1.804-1.674-1.804-1.674s-.63-.703-.545-1.45c.001-.299.096-.926.667-1.225.563-.287 1.204-.137 1.441.017 1.006.496 1.208.996 1.39 1.461.014.102.205-.58.205-.58"
		/>
		<path
			fill="#3aa549"
			d="M15.853 19.683c-.497.452-1.743.909-2.677 1.21-.727.235-1.487.245-1.487.245l.343-3.163s2.13-.721 2.79-.734c.803-.014 1.314-.059 1.588.904.139.491-.13 1.15-.557 1.538m2.122-6.947c-1.095-.501-2.221-.33-3.67-.175-1.003.108-7.936 1.649-7.936 1.649l-.64 5.892 2.09-.661s.22.005.077.074c-.143.07-2.146 12.002-2.144 12.405.004.475 4.164-.682 4.164-.682l1.078-5.007s.15-.02 1.12-.349c.97-.33 3.167-1.325 3.167-1.325 4.764-3.05 4.589-7.493 4.484-9.26-.096-1.621-1.79-2.56-1.79-2.56"
		/>
		<path
			stroke="#3aa549"
			stroke-linecap="round"
			stroke-linejoin="round"
			stroke-width=".228"
			d="M15.853 19.683c-.497.452-1.743.909-2.677 1.21-.727.235-1.487.245-1.487.245l.343-3.163s2.13-.721 2.79-.734c.803-.014 1.314-.059 1.588.904.139.491-.13 1.15-.557 1.538m2.122-6.947c-1.095-.501-2.221-.33-3.67-.175-1.003.108-7.936 1.649-7.936 1.649l-.64 5.892 2.09-.661s.22.005.077.074c-.143.07-2.146 12.002-2.144 12.405.004.475 4.164-.682 4.164-.682l1.078-5.007s.15-.02 1.12-.349c.97-.33 3.167-1.325 3.167-1.325 4.764-3.05 4.589-7.493 4.484-9.26-.096-1.621-1.79-2.56-1.79-2.56"
		/>
		<path
			fill="#3aa549"
			d="M24.958 21.341c-.935 2.154-2.707 3.298-3.858 2.8-1.152-.497-1.387-2.536-.45-4.69.935-2.152 2.646-3.184 3.797-2.687s1.446 2.423.511 4.577m.244-10.213c-3.022.23-7.328 4.543-8.788 9.91-1.46 5.366.565 9.491 3.587 9.262 3.021-.23 8.619-3.973 10.078-9.34 1.46-5.366-1.855-10.062-4.877-9.832"
		/>
		<path
			stroke="#3aa549"
			stroke-linecap="round"
			stroke-linejoin="round"
			stroke-width=".228"
			d="M24.958 21.341c-.935 2.154-2.707 3.298-3.858 2.8-1.152-.497-1.387-2.536-.45-4.69.935-2.152 2.646-3.184 3.797-2.687s1.446 2.423.511 4.577m.244-10.213c-3.022.23-7.328 4.543-8.788 9.91-1.46 5.366.565 9.491 3.587 9.262 3.021-.23 8.619-3.973 10.078-9.34 1.46-5.366-1.855-10.062-4.877-9.832"
		/>
		<path
			fill="#3aa549"
			d="M51.017 8.22s1.782-.563 3.794-.696a32 32 0 0 1 4.66.006c1.989.139 2.312.183 2.312.183s-.248 1.182-.73 2.284c-.325.743-.507 1.25-.738 1.696-.31.6-.703 1.356-1.066 2.026a116 116 0 0 0-1.55 2.965c-1.065 2.091-1.782 3.888-1.782 3.888s3.615.211 5.926-.935l.427-.232s-1.894 5.37-2.143 5.614c-.25.244-1.14.43-3.233.285-2.095-.147-6.057-.6-6.885-1.018 0 0-.098.075-.452-.474 0 0 1.3-3.469 2.505-5.802s3.052-5.82 3.052-5.82l-.072-.114s-.685-.1-2.185.097c-1.161.153-1.558.324-2.466.693 0 0-.259.065-1.386.767z"
		/>
		<path
			stroke="#3aa549"
			stroke-linecap="round"
			stroke-linejoin="round"
			stroke-width=".228"
			d="M51.017 8.22s1.782-.563 3.794-.696a32 32 0 0 1 4.66.006c1.989.139 2.312.183 2.312.183s-.248 1.182-.73 2.284c-.325.743-.507 1.25-.738 1.696-.31.6-.703 1.356-1.066 2.026a116 116 0 0 0-1.55 2.965c-1.065 2.091-1.782 3.888-1.782 3.888s3.615.211 5.926-.935l.427-.232s-1.894 5.37-2.143 5.614c-.25.244-1.14.43-3.233.285-2.095-.147-6.057-.6-6.885-1.018 0 0-.098.075-.452-.474 0 0 1.3-3.469 2.505-5.802s3.052-5.82 3.052-5.82l-.072-.114s-.685-.1-2.185.097c-1.161.153-1.558.324-2.466.693 0 0-.259.065-1.386.767z"
		/>
		<path
			fill="#00774c"
			d="M29.442 28.625c.242-.059-2.042.439-2.72.484.008 0 0-.046.03-.153.468-1.745 3.4-16.948 3.4-16.948s1.008-.26 2.193-.524c1.477-.329 2.995-.595 2.995-.595l-.084.381s-2.966 16.211-3.092 16.29c-.727.45-1.982.884-2.722 1.065"
		/>
		<path
			stroke="#00774c"
			stroke-linecap="round"
			stroke-linejoin="round"
			stroke-width=".228"
			d="M29.442 28.625c.242-.059-2.042.439-2.72.484.008 0 0-.046.03-.153.468-1.745 3.4-16.948 3.4-16.948s1.008-.26 2.193-.524c1.477-.329 2.995-.595 2.995-.595l-.084.381s-2.966 16.211-3.092 16.29c-.727.45-1.982.884-2.722 1.065"
		/>
		<path
			fill="#f4a32d"
			d="M28.165 27.647c.241-.06-2.042.438-2.721.484.008 0 .001-.047.03-.152.468-1.746 3.401-16.949 3.401-16.949s1.204-.05 2.39-.313c1.475-.329 2.797-.806 2.797-.806l-.084.382s-2.965 16.21-3.093 16.29c-.725.449-1.98.882-2.72 1.064"
		/>
		<path
			stroke="#f4a32d"
			stroke-linecap="round"
			stroke-linejoin="round"
			stroke-width=".229"
			d="M28.165 27.647c.241-.06-2.042.438-2.721.484.008 0 .001-.047.03-.152.468-1.746 3.401-16.949 3.401-16.949s1.204-.05 2.39-.313c1.475-.329 2.797-.806 2.797-.806l-.084.382s-2.965 16.21-3.093 16.29c-.725.449-1.98.882-2.72 1.064"
		/>
		<path
			stroke="#00774c"
			stroke-linecap="round"
			stroke-linejoin="round"
			stroke-width=".52"
			d="m51.903 31.302 3.888-.511m-2.052.365-1.024 3.321m-13.999.045 2.046-.269m-4.115 2.286s.913-4.302 3.293-3.758c.16.036.409.114.54.243 0 0 1.058.574.318 3.018m-24.898-.15c-.067.226-.074.342-.262.896-.149.454-.197.65-.284.855-.241.597-.355.703-.668 1.148-.22.247-.407.43-.733.642-.433.217-.933.35-1.307.08 0 0-.536-.257-.296-1.418.087-.423.313-1.143.529-1.811"
		/>
		<path
			stroke="#00774c"
			stroke-linecap="round"
			stroke-linejoin="round"
			stroke-width=".525"
			d="m22.64 36.704 2.066-.271m-2.38-1.258 2.962-.388m-3.994 3.81 3.212-.42m-2.22-2.99-1.09 3.426m35.938-6.438 2.066-.272m-2.381-1.257 2.962-.39m-3.994 3.813 3.212-.42m-2.22-2.99-1.09 3.425"
		/>
		<path
			stroke="#00774c"
			stroke-linecap="round"
			stroke-linejoin="round"
			stroke-width=".52"
			d="m64.221 29.665-1.039 3.417m-2.001-2.996-1.124 3.427m1.155-3.386 1.294 2.425m-30.138 1.294-1.122 3.428m1.155-3.387.913 1.416m2.971-1.928-1.166 3.413m1.094-3.449-2 1.942m-17.797 3.962.995-3.437s3.646-.85 3.29.57c0 0-.27.721-2.525 1.018m30.034-5.636-.994 3.437m3.666-3.768-2.557 1.988m2.42 1.32-2.451-1.268m-22.48 4.54.994-3.438s3.647-.851 3.29.57c0 0-.27.721-2.525 1.018m2.39 1.307-2.45-1.268m14.438-.31.996-3.436s3.646-.852 3.288.569c0 0-.268.723-2.524 1.018m2.391 1.308-2.451-1.268"
		/>
		<path
			stroke="#00774c"
			stroke-linecap="round"
			stroke-width=".536"
			d="M11.129 37.34s-.141-.612-.903-.696c-.794-.086-2.25.23-2.56.863-.187.384-.1.95 1.139.893 1.058-.05 1.757-.181 2.088.229.443.548-.408 1.285-1.171 1.484-.78.205-1.503.288-1.938.113-.573-.231-.682-.604-.694-.704"
		/>
		<path
			stroke="#00774c"
			stroke-linecap="round"
			stroke-width=".473"
			d="M7.795 38.173s.263.278 1.412.163c0 0 1.585-.129 1.724.317"
		/>
	</g>
</svg>
