<svg
	xmlns="http://www.w3.org/2000/svg"
	xml:space="preserve"
	viewBox="377.1 0 76.5 74.675"
>
	<style>.st0{fill:#E40134}</style>
	<path
		d="M377.1 38.3c0 13.8 6.9 26.1 19.1 32.1 11.5 5.7 26.8 5.7 38.3 0 11.4-5.6 19.1-18.4 19.1-32.1 0-21.1-17.1-38.3-38.2-38.3-21.2 0-38.3 17.1-38.3 38.3"
		style="fill: #007a33"
	/>
	<path
		d="M415.4 9.9C411.5 23 400 42.1 391.7 51.5h19.9v5.7c0 3.2-2.6 6.6-6.3 6.5-6.4-.1-12.4-3.5-15.6-9.1-2.9-4.8-4.9-8.7-4.9-16.3 0-16.9 13.7-30.6 30.5-30.6h.1c16.8.2 30.4 13.8 30.6 30.6-.2 5.7-1.8 11.3-4.8 16.2-3.2 5.6-9.1 9-15.5 9.2-3.5.1-6.4-2.7-6.5-6.2v-6.1h20.1c-8.6-9.3-20.1-28.4-23.9-41.5"
		style="fill: #ffffff"
	/>
</svg>
