<svg xmlns="http://www.w3.org/2000/svg" width="600" height="290">
	<path
		fill="#fc0816"
		d="M579.38 264.54h-5.948l.075-27.935H562.89v-5.421h27.107v5.421H579.38zm-18.674.075h-7.078l-11.37-15.06-5.195 5.347v9.713h-5.874v-33.432h-.075 5.873v16.79l15.888-16.79h7.229l-13.93 14.382zm-64.003-33.432h14.909c4.217 0 7.455 1.205 9.638 3.314 1.732 1.807 2.786 4.291 2.786 7.228v.076c0 5.496-3.313 8.81-7.906 10.09l9.036 12.65h-6.928l-8.207-11.671h-7.38v11.67h-5.873zm14.457 16.565c4.217 0 6.852-2.183 6.852-5.572v-.075c0-3.614-2.56-5.497-6.927-5.497h-8.509v11.22h8.584zm-40.284-16.79h5.421l14.683 33.657h-6.174l-3.388-8.056h-15.813l-3.464 8.056h-6.024zm8.358 20.33-5.798-13.329-5.723 13.328zm-34.637 13.251v-23.945l-10.542 15.737h-.226l-10.39-15.587v23.87h-5.799V231.18h6.25l10.165 15.813 10.165-15.813h6.25v33.357zm-57.603-33.357h-.075 9.261v25.3h16.19v8.133h-25.376zm-6.777 20.255H364.18v5.271H382.1v7.907h-27.107v-33.432h26.881v7.83H364.18v5.12h16.038zm-31.85 0h-16.039v5.271h17.996v7.907h-27.107v-33.432h26.806v7.83h-17.695v5.12h16.038zm-61.67-20.255h12.951c11.897 0 18.75 6.853 18.75 16.49v.076c0 9.638-7.003 16.79-18.976 16.79h-12.725zm9.262 8.133v17.017h3.765c5.572 0 9.261-3.088 9.261-8.434v-.075c0-5.346-3.69-8.509-9.261-8.509zm-43.522-8.133h15.813c5.12 0 8.659 1.356 10.843 3.615 1.958 1.957 2.936 4.517 2.936 7.755v.076c0 5.12-2.71 8.508-6.852 10.316l7.982 11.67h-10.617l-6.702-10.09h-4.066v10.09h-9.337zm15.36 16.038c3.088 0 4.97-1.506 4.97-3.99v-.076c0-2.635-1.957-3.99-4.97-3.99H261.7v8.056zm-56.096.753v-.075c0-9.563 7.755-17.394 17.996-17.394s17.92 7.68 17.92 17.243v.075c0 9.563-7.755 17.394-17.995 17.394s-17.921-7.68-17.921-17.243m26.429 0v-.075c0-4.894-3.464-9.036-8.509-9.036-5.12 0-8.508 4.066-8.508 8.885v.076c0 4.819 3.463 9.035 8.584 9.035 5.12.076 8.433-4.066 8.433-8.885zm-66.036 0v-.075c0-9.563 7.756-17.394 17.996-17.394s17.92 7.68 17.92 17.243v.075c0 9.563-7.755 17.394-17.995 17.394s-17.921-7.68-17.921-17.243m26.429 0v-.075c0-4.894-3.464-9.036-8.509-9.036-5.12 0-8.508 4.066-8.508 8.885v.076c0 4.819 3.463 9.035 8.584 9.035 5.044.076 8.433-4.066 8.433-8.885m-48.567 16.867-13.478-33.658h10.316l7.605 21.16 7.605-21.16h10.09L158.54 264.84zm2.033-124.17c-1.28-9.035-9.412-15.737-18.674-15.737-7.304 0-17.846 6.551-22.966 11.445-15.285 14.532-22.062 40.435-20.481 60.841.753 9.413 8.358 16.19 17.017 18.674 11.67 3.313 19.954-4.819 25.978-13.779 11.37-16.64 22.062-40.66 19.126-61.443-.452-3.012.527 3.69 0 0m-14.984 11.897c-1.883 15.587-9.111 32.604-18.9 44.877-3.916 4.97-10.24 9.94-12.424 1.506-.904-3.463-3.087-13.252-.452-16.189 1.958-2.183 1.732-3.614 3.313-7.153 1.205-2.861 2.334-5.572 3.54-8.358 2.71-6.325 6.173-11.069 10.164-16.64 3.388-4.745 8.057-7.983 12.65-11.446 3.163-2.41 2.334 11.521 2.108 13.403-.376 3.238.302-2.184 0 0m22.44-139.15q-4.405-3.84-9.262-3.84c-11.521.075-21.686 16.34-27.107 25.074l-.301.527c-18.75 29.968-34.035 64.605-48.115 109.03-5.271 16.566-10.165 34.562-15.813 58.205-1.808 7.454-3.916 16.114-5.798 24.622-.528 2.41-1.13 4.894-1.657 7.304l-1.13 5.045c-.15.753-.3 1.807-.451 2.861-.377 2.41-.753 5.346-1.807 6.927-1.958-4.367-2.636-9.864-3.314-15.135a286 286 0 0 0-.677-5.045l-.678-4.216c-1.657-10.391-3.313-21.16-4.819-31.776-3.238-22.966-5.12-46.76-6.852-67.693-.602-7.078-.904-14.231-1.28-21.16-.15-3.463-.301-7.002-.527-10.465-.301-5.196-1.657-7.078-6.551-8.96-1.28-.528-3.163-1.13-5.045-1.13-1.732 0-3.238.602-4.443 1.732-4.066 3.84-3.915 9.186-3.765 14.382 0 .677 0 1.355.076 2.033.15 9.562.979 19.276 1.807 28.613.15 1.43.226 2.861.377 4.292a1358 1358 0 0 0 8.132 73.189c1.882 13.78 3.69 24.848 5.647 34.938q.451 2.484.904 5.421c1.355 8.66 3.087 19.352 8.584 24.773 4.442 4.367 11.67 7.455 17.243 7.455s8.282-12.575 9.562-18.523q.226-1.243.452-2.033a5339 5339 0 0 0 6.928-29.065c1.58-6.627 3.162-13.478 4.743-20.18 8.584-35.691 16.942-64.53 26.354-90.734 6.25-17.47 12.575-32.378 19.201-45.63 4.895-9.79 9.111-17.544 13.328-24.472a189 189 0 0 1 7.304-11.07.79.79 0 0 1 .678-.376c.903 0 2.183 1.13 3.012 1.732l.226.226c2.41 2.033 5.044 3.162 7.379 3.087 2.936 0 5.195-1.807 6.475-5.045 4.97-12.725 5.271-21.16.98-24.924m277.47 124.47c-3.766-6.852-11.37 1.355-14.759 3.99-8.584 6.551-11.67 8.735-21.234 13.705-6.852 3.539-16.565 5.195-24.547 4.819-8.282-.377-15.135-2.786-21.385-7.68-1.43-1.13-14.156-11.22-12.8-12.877 2.71-3.162 7.228-5.497 10.39-8.433a93.3 93.3 0 0 0 11.521-12.876c6.1-8.283 22.363-36.068.678-36.67-9.111.376-19.126 7.605-25.074 14.156-3.012 3.388-5.497 7.153-8.057 10.843-1.355 2.033-2.71 6.25-4.744 3.238-6.4-9.262-13.102.075-15.662 7.002-3.69 9.864-3.238 21.008-7.68 30.646-3.313 7.229-4.443 18.373-12.5 20.933-4.366 1.356-.903-22.062-.602-24.848 1.205-9.563 4.669-18.674 6.1-28.237 1.28-8.734-7.831-17.168-16.565-11.897-12.424 7.455-21.008 21.008-27.56 33.658-3.689 7.078-6.626 14.608-8.433 22.363-1.054 4.593-2.786 6.928-7.454 9.036.828-6.325.677-12.801 1.054-19.201.527-8.735 2.485-19.954-.452-28.387-2.485-7.153-12.65-9.186-17.77-4.141-6.55 6.475-11.069 15.285-15.285 23.418-.828-6.175 0-12.048-5.346-16.34-11.37-7.982-18.975 4.593-24.02 13.93-.678-5.422 4.367-13.554-1.807-16.791-5.421-2.786-7.756-2.033-9.94 3.915-3.237 8.735-3.84 19.352-5.42 28.463-1.808 10.918-3.69 21.912-5.272 32.83-.978 7.153-3.463 15.662 5.497 18.523 7.38 2.334 8.885-7.153 10.617-12.274 3.464-9.864 6.702-19.803 10.617-29.517 2.71-6.927 5.422-15.963 10.09-21.836 3.84 10.617-17.093 58.808 4.518 56.022 5.045 0 6.174-8.057 7.605-11.746 2.786-7.229 5.497-14.457 8.358-21.686 3.765-9.487 7.38-23.869 14.834-30.872 1.581 14.005-1.581 29.97-2.71 43.974-.452 5.798-.98 13.403 5.722 15.888 7.605 2.786 17.168-6.024 20.406-11.67 2.184 3.463 4.443 7.228 9.036 7.228 9.487-.076 14.307-6.4 18.222-14.005 3.463 18.448 24.095 5.496 30.345-4.292.903 4.668 2.71 7.228 7.83 7.755 3.314.377 5.497.15 6.476-3.313 2.862-10.015 1.13-21.385 6.476-30.72 6.174 7.002 10.993 14.531 18.599 20.254 9.638 7.229 23.267 12.123 36.068 11.295 11.52-.753 23.04-3.84 35.013-11.596 5.948-3.69 24.848-18.297 21.008-25.978-.377-.753.377.753 0 0m-156.92-11.069c-5.196 15.06-8.96 31.324-21.16 42.77-1.354-8.66 3.615-19.127 7.004-26.732 3.388-7.53 8.207-18.749 16.038-22.815-.076 2.26-1.13 4.669-1.883 6.777-.15.452.301-.979 0 0m80.945-29.065c2.636 4.367-15.662 26.806-21.46 29.366-.979.452-1.054-.979-1.28-1.581-1.958-5.949 15.285-28.688 22.74-27.785"
	/>
</svg>
